<svg width="280" height="72" viewBox="0 0 280 72" xmlns="http://www.w3.org/2000/svg" role="img" aria-label="SmartSurf">
  <rect width="280" height="72" fill="none"/>
  <path d="M20 43c10-16 25-19 42-8 12 8 23 8 34-1-9 16-25 22-42 10-12-8-23-8-34-1z" fill="#2fc49b" opacity=".96"/>
  <path d="M25 30c9-11 22-13 36-4 10 6 19 6 28 0-8 12-22 16-36 7-10-6-18-7-28-3z" fill="#8fd3ff" opacity=".7"/>
  <text x="108" y="36" fill="#ffffff" font-family="Inter, Segoe UI, Arial, sans-serif" font-size="28" font-weight="800" letter-spacing="1.2">SMARTSURF</text>
  <text x="110" y="54" fill="#a7bdd5" font-family="Inter, Segoe UI, Arial, sans-serif" font-size="11" font-weight="700" letter-spacing="2.4">SAFETY PLATFORM</text>
</svg>
